<svg xmlns="http://www.w3.org/2000/svg" version="1.1" viewBox="-5.0 -10.0 110.0 110.0">
    <path
        d="m87.434 34.57h-0.64062v-6.3242c0-4.1289-3.3594-7.4922-7.4922-7.4922h-0.078125c-0.3125-5.1484-4.0859-9.4766-9.1406-10.488l-40.383-8.0742c-9.4961-1.9023-18.379 5.3594-18.379 15.066v3.5h-0.054687c-3.6094 0-6.5469 2.9375-6.5469 6.5469v25.195c0 0.35156-0.20312-0.37109 5.2461 12.926 1.0117 2.4609 3.3906 4.0547 6.0547 4.0547h1.0977l11.223 12.949c0.20312 1.957 1.2617 3.6602 2.793 4.7305v7.1836c0 2.082 1.6914 3.7734 3.7734 3.7734s3.7734-1.6914 3.7734-3.7734v-7.1836c3.7734-2.6367 3.7734-8.1914 0-10.828v-6.8477h4.7734c3.1992 0 5.8945-2.3398 6.4414-5.3945l36.426 5.2031c4.7266 0.67578 8.9609-2.9961 8.9609-7.7695l0.003906-19.102c0-4.3281-3.5234-7.8516-7.8516-7.8516zm-58.105-30.531 40.383 8.0781c2.0664 0.41406 3.8711 1.4883 5.2031 2.9766h-61.535c1.1836-7.3828 8.3281-12.578 15.949-11.055zm-16.117 12.941h63.027c0.61328 1.1484 0.99609 2.4258 1.0938 3.7734h-64.125s-0.003906-3.3633 0.003907-3.7734zm18.863 5.6602h3.7734v4.7188c0 1.0391-0.84766 1.8867-1.8867 1.8867-1.0391 0-1.8867-0.84766-1.8867-1.8867zm-11.32 0h3.7734v4.7188c0 1.0391-0.84766 1.8867-1.8867 1.8867s-1.8867-0.84766-1.8867-1.8867zm-9.4883 0h7.6055v4.7188c0 2.082 1.6914 3.7734 3.7734 3.7734s3.7734-1.6914 3.7734-3.7734v-4.7188h3.7734v4.7188c0 2.082 1.6914 3.7734 3.7734 3.7734 2.082 0 3.7734-1.6914 3.7734-3.7734v-4.7188h41.566c3.0898 0 5.6055 2.5156 5.6055 5.6055v6.3242h-36.492c-3.9375 0-7.1992 2.875-7.7617 6.6836-1.4648 0.26953-2.6953 1.2188-3.3516 2.5078l-30.699-10.473v-5.9844c0-2.5742 2.0898-4.6641 4.6602-4.6641zm30.246 26.082c-1.5625 0-2.832-1.2695-2.832-2.832s1.2695-2.832 2.832-2.832 2.832 1.2695 2.832 2.832c-0.003906 1.5625-1.2734 2.832-2.832 2.832zm-17.352 20.754 6.3594 7.3359c-0.89844 0.80078-1.5742 1.8398-1.9336 3.0195l-8.9727-10.355zm12.633 24.863c0 1.0391-0.84766 1.8867-1.8867 1.8867s-1.8867-0.84766-1.8867-1.8867v-6.2695c1.2305 0.36719 2.5391 0.36719 3.7734 0zm2.832-12.598c0 2.6016-2.1172 4.7188-4.7188 4.7188s-4.7188-2.1172-4.7188-4.7188c0-2.6016 2.1172-4.7188 4.7188-4.7188s4.7188 2.1172 4.7188 4.7188zm-6.6055-6.3281v-5.9336h3.7734v5.9336c-1.2305-0.36719-2.5391-0.37109-3.7734 0zm-1.8867-0.77344-4.4766-5.1641h4.4766zm12.32-7.0508h-27.438c-1.8945 0-3.5859-1.1328-4.3086-2.8867l-5.1055-12.395 0.003907-17.027 30.199 10.305c-0.15625 2.4219 1.5273 4.4727 3.7617 4.9297v5.4258c0 3.8789 2.8984 7.2188 6.7383 7.7695l0.72266 0.10156c-0.41797 2.1445-2.3164 3.7773-4.5742 3.7773zm49.945-6.0742c0 3.625-3.2148 6.418-6.8047 5.9023l-39.023-5.5742c-2.918-0.41797-5.1172-2.9531-5.1172-5.9023v-5.4258c2.1484-0.4375 3.7734-2.3438 3.7734-4.6211 0-2.2383-1.5703-4.1172-3.668-4.5977 0.52344-2.7734 2.9492-4.8359 5.8555-4.8359h39.02c3.2891 0 5.9609 2.6758 5.9609 5.9609z" />
    <path
        d="m30.961 50h-12.867c-2.1758 0-3.9453 1.7695-3.9453 3.9453v3.4336c0 2.1758 1.7695 3.9453 3.9453 3.9453h12.867c2.1758 0 3.9453-1.7695 3.9453-3.9453v-3.4336c0-2.1758-1.7695-3.9453-3.9453-3.9453zm2.0586 7.3789c0 1.1328-0.92188 2.0547-2.0547 2.0547h-12.871c-1.1328 0-2.0547-0.92188-2.0547-2.0547v-3.4336c0-1.1328 0.92188-2.0547 2.0547-2.0547h12.867c1.1328 0 2.0547 0.92188 2.0547 2.0547z" />
    <text x="50" y="0" font-size="11" font-weight="bold" text-anchor="middle"
        font-family="Marker Felt, Comic Sans MS, Chalkboard SE, Bradley Hand, cursive" fill="#000000">Head Sense</text>
</svg>